<svg aria-hidden="true" style="position:absolute;width:0;height:0;overflow:hidden" xmlns="http://www.w3.org/2000/svg"><defs><symbol id="icon-Vector-o" viewBox="0 0 25 28"><path fill="#fff" style="fill:var(--color1, #fff)" d="M23.593 14c0 8.386-4.6 13.728-11.964 13.728S.127 21.663.127 14.42C.127 6.826 4.677.804 11.993.804c7.7 0 11.6 6.219 11.6 13.199zm-16.685.294c0 4.9 1.957 7.902 5.012 7.902s4.908-3.27 4.908-7.969c0-4.491-1.84-7.89-4.945-7.89-3.016 0-4.97 3.144-4.97 7.958h-.006z"/></symbol><symbol id="icon-Vector-l" viewBox="0 0 20 28"><path fill="#fff" style="fill:var(--color1, #fff)" d="M1.221 1.226h6.395v20.222h9.204V27.3H1.221V1.226z"/></symbol><symbol id="icon-Vector-e" viewBox="0 0 20 28"><path fill="#fff" style="fill:var(--color1, #fff)" d="M16.895 16.789H8.299v4.805h9.596V27.3H1.904V1.226h15.492v5.706H8.299v4.211h8.596v5.645z"/></symbol><symbol id="icon-Vector-v" viewBox="0 0 25 28"><path fill="#fff" style="fill:var(--color1, #fff)" d="M9.758 27.3 2.17 1.226h7.022l2.537 10.262c.75 2.92 1.408 5.774 1.982 9.12h.07c.574-3.181 1.26-6.199 1.96-9.002l2.598-10.374h6.804l-7.82 26.079-7.566-.011z"/></symbol><symbol id="icon-Vector-d" viewBox="0 0 25 28"><path fill="#fff" style="fill:var(--color1, #fff)" d="M2.321 1.588a45.346 45.346 0 0 1 7.594-.56c4.6 0 7.448.812 9.82 2.59 2.632 1.98 4.323 5.23 4.323 10.018 0 5.309-1.84 8.761-4.172 10.746-2.624 2.218-6.535 3.209-11.206 3.209a39.23 39.23 0 0 1-6.359-.426V1.587zm6.384 20.504c.454.064.907.09 1.361.073 4.141.056 7.204-2.425 7.204-8.308 0-5.096-2.761-7.49-6.616-7.49a8.35 8.35 0 0 0-2 .178l.054-.01v15.557z"/></symbol><symbol id="icon-Vector-left" viewBox="0 0 14 28"><path fill="#fff" style="fill:var(--color1, #fff)" d="M13.866 26.759H8.069L1.11 13.875 8.069.677h5.797L7.49 13.875l6.376 12.884z"/></symbol><symbol id="icon-LeftVector" viewBox="0 0 24 28"><path d="M14.807 27.513 23.918 0H0v27.513h14.807z"/></symbol><symbol id="icon-RignthVector" viewBox="0 0 25 28"><path d="M9.424.06.312 27.674h23.92V.06H9.423z"/></symbol><symbol id="icon-Vector-rignth" viewBox="0 0 14 28"><path fill="#fff" style="fill:var(--color1, #fff)" d="M.717.753h5.8l6.958 12.884-6.958 13.198h-5.8l6.378-13.198L.719.753z"/></symbol><symbol id="icon-Vector-s" viewBox="0 0 20 28"><path fill="#fff" style="fill:var(--color1, #fff)" d="M3.623 20.356a13.668 13.668 0 0 0 6.194 1.616c2.184 0 3.268-.829 3.268-2.148 0-1.316-1.072-1.98-3.772-2.988-4.024-1.557-6.709-3.984-6.709-7.862 0-4.612 3.562-8.148 9.593-8.148a14.454 14.454 0 0 1 6.443 1.33l-1.336 5.58a11.56 11.56 0 0 0-5.189-1.235h-.002c-1.946 0-3.018.778-3.018 1.924 0 1.322 1.266 1.854 4.278 3.086 4.304 1.719 6.227 4.236 6.227 7.862 0 4.522-3.22 8.336-10.178 8.336-2.881 0-5.67-.826-7.022-1.588l1.224-5.762z"/></symbol><symbol id="icon-Vector-r" viewBox="0 0 22 28"><path fill="#fff" style="fill:var(--color1, #fff)" d="M1.576 1.588c2.194-.358 4.723-.562 7.299-.562l.44.002h-.022c3.682 0 6.278.549 8.078 2.008 1.532 1.277 2.352 3.136 2.352 5.684 0 3.254-2.229 5.564-4.088 6.308v.134c1.588.745 2.444 2.408 3.055 4.673.72 2.646 1.504 6.44 1.966 7.445h-6.535c-.364-.756-.983-2.794-1.674-6.028-.65-3.125-1.523-3.774-3.497-3.774H7.908v9.778H1.58V1.588zm6.331 10.906h1.666c2.414 0 3.802-1.285 3.802-3.24s-1.176-3.063-3.304-3.086a9.284 9.284 0 0 0-2.223.167l.059-.01v6.168z"/></symbol><symbol id="icon-Vector-p" viewBox="0 0 20 28"><path fill="#fff" style="fill:var(--color1, #fff)" d="M1.173 1.588c2.144-.36 4.613-.566 7.131-.566.261 0 .522.002.782.007l-.039-.001c3.436 0 5.9.675 7.574 2.078a7.682 7.682 0 0 1 2.038 2.786 8.335 8.335 0 0 1 .68 3.489c0 2.643-.812 4.956-2.324 6.432-1.926 1.887-4.732 2.727-7.952 2.727-.622 0-1.168-.056-1.56-.084v8.848H1.175V1.586zm6.345 11.505a7.33 7.33 0 0 0 1.464.101c2.484 0 4.043-1.408 4.043-3.648 0-1.943-1.176-3.259-3.612-3.259a8.291 8.291 0 0 0-1.95.189l.055-.01v6.628z"/></symbol></defs></svg>