<svg aria-hidden="true" style="position: absolute; width: 0; height: 0; overflow: hidden;" version="1.1" xmlns="http://www.w3.org/2000/svg" xmlns:xlink="http://www.w3.org/1999/xlink">
<defs>
<symbol id="icon-ChevronUp" viewBox="0 0 28 28">
<path d="M13.38 8.537c0.081-0.081 0.178-0.146 0.284-0.19s0.22-0.067 0.335-0.067c0.115 0 0.229 0.023 0.335 0.067s0.203 0.109 0.284 0.19l10.5 10.5c0.164 0.164 0.257 0.387 0.257 0.619s-0.092 0.455-0.257 0.62c-0.164 0.164-0.387 0.257-0.619 0.257s-0.455-0.092-0.62-0.257l-9.88-9.882-9.881 9.882c-0.164 0.164-0.387 0.257-0.62 0.257s-0.455-0.092-0.619-0.257c-0.164-0.164-0.257-0.387-0.257-0.62s0.092-0.455 0.257-0.619l10.5-10.5z"></path>
</symbol>
<symbol id="icon-tg" viewBox="0 0 34 28">
<path fill="#fff" style="fill: var(--color1, #fff)" d="M13.226 18.596l-0.365 7.551 8.282-7.024-7.917-0.528z"></path>
<path fill="#fff" style="fill: var(--color1, #fff)" d="M32.349 0.569l-30.936 11.774c-0.893 0.325-0.853 1.583 0.041 1.868l7.957 2.679 18.188-11.733-14.372 13.438 11.205 8.485c1.177 0.893 2.842 0.284 3.207-1.137l6.049-24.238c0.203-0.771-0.568-1.421-1.34-1.137z"></path>
</symbol>
<symbol id="icon-fb" viewBox="0 0 14 28">
<path fill="#fff" style="fill: var(--color1, #fff)" d="M13.354 9.803h-4.034v-2.631c0.263-2.543 4.472-2.017 4.472-2.017v-4.297c-0.175 0-8.243-1.929-9.909 4.209-0.263 0.789-0.263 4.297-0.263 4.735h-3.508v4.735h3.683v12.891h5.349v-12.891h4.209l0.438-4.735h-0.438z"></path>
</symbol>
<symbol id="icon-insta" viewBox="0 0 29 28">
<path fill="#fff" style="fill: var(--color1, #fff)" d="M14.197 0.182c-3.454 0-4 0-5.455 0.091s-2.545 0.273-3.364 0.636c-0.909 0.364-1.727 0.818-2.455 1.636-0.818 0.818-1.273 1.545-1.636 2.455s-0.545 1.909-0.636 3.364c-0.091 1.455-0.091 2-0.091 5.727 0 3.818 0 4.273 0.091 5.727s0.273 2.545 0.636 3.364c0.364 0.909 0.818 1.727 1.636 2.455 0.818 0.818 1.545 1.273 2.455 1.636s1.909 0.546 3.364 0.636 2 0.091 5.727 0.091c3.818 0 4.273 0 5.727-0.091s2.546-0.273 3.364-0.636c0.909-0.364 1.727-0.818 2.455-1.636 0.818-0.818 1.273-1.545 1.636-2.455s0.545-1.909 0.636-3.364c0.091-1.455 0.091-1.909 0.091-5.455v-0.727c0-3.455 0-4-0.091-5.455s-0.273-2.545-0.636-3.364c-0.364-0.909-0.818-1.727-1.636-2.455-0.818-0.818-1.545-1.273-2.455-1.636s-1.909-0.545-3.364-0.636c-1.454-0.091-1.909-0.091-5.455-0.091h-0.546v0.182zM23.742 6.636c0 0.909-0.727 1.636-1.636 1.636s-1.636-0.727-1.636-1.636c0-0.909 0.727-1.636 1.636-1.636 0.818 0 1.636 0.727 1.636 1.636zM14.56 18.727c-2.545 0-4.636-2.091-4.636-4.636s2.091-4.636 4.636-4.636c2.546 0 4.636 2.091 4.636 4.636s-2.091 4.636-4.636 4.636zM14.56 6.909c4 0 7.182 3.182 7.182 7.182s-3.182 7.182-7.182 7.182c-4 0-7.182-3.182-7.182-7.182s3.273-7.182 7.182-7.182zM14.56 2.636c3.727 0 4.182 0 5.636 0.091 1.364 0.091 2.091 0.273 2.636 0.455 0.636 0.273 1.091 0.545 1.636 1 0.455 0.455 0.818 0.909 1 1.636 0.182 0.455 0.455 1.273 0.455 2.636 0.091 1.455 0.091 1.909 0.091 5.636s0 4.182-0.091 5.636c-0.091 1.364-0.273 2.091-0.455 2.636-0.273 0.636-0.545 1.091-1 1.636-0.455 0.455-0.909 0.818-1.636 1-0.455 0.182-1.273 0.455-2.636 0.455-1.454 0.091-1.909 0.091-5.636 0.091s-4.182 0-5.636-0.091c-1.364-0.091-2.091-0.273-2.636-0.455-0.636-0.273-1.091-0.546-1.636-1-0.455-0.455-0.818-0.909-1-1.636-0.182-0.455-0.455-1.273-0.455-2.636-0.091-1.455-0.091-1.909-0.091-5.636s0-4.182 0.091-5.636c0.091-1.364 0.273-2.091 0.455-2.636 0.273-0.636 0.545-1.091 1-1.636 0.455-0.455 0.909-0.818 1.636-1 0.455-0.182 1.273-0.455 2.636-0.455 1.455-0.091 1.909-0.091 5.636-0.091z"></path>
</symbol>
<symbol id="icon-whatsapp" viewBox="0 0 29 28">
<path fill="#fff" style="fill: var(--color1, #fff)" d="M0.331 28l1.974-7.514c-1.105-2.057-1.737-4.35-1.737-6.644 0-7.672 6.237-13.842 13.816-13.842s13.816 6.169 13.816 13.842c0 7.593-6.158 13.842-13.816 13.842-2.289 0-4.5-0.554-6.553-1.661l-7.5 1.977zM8.226 23.175l0.474 0.316c1.737 1.028 3.711 1.582 5.684 1.582 6.158 0 11.211-5.062 11.211-11.232s-5.053-11.232-11.211-11.232-11.21 5.062-11.21 11.232c0 2.057 0.553 4.034 1.658 5.774l0.316 0.475-1.105 4.192 4.184-1.107z"></path>
<path fill="#fff" style="fill: var(--color1, #fff)" d="M19.515 15.741c-0.553-0.316-1.342-0.712-1.974-0.475-0.553 0.237-0.868 1.028-1.184 1.424-0.158 0.237-0.395 0.237-0.632 0.158-1.895-0.791-3.395-2.057-4.5-3.797-0.158-0.237-0.158-0.475 0.079-0.712 0.316-0.396 0.71-0.791 0.79-1.345 0.079-0.475-0.158-1.107-0.395-1.582-0.237-0.554-0.553-1.424-1.184-1.74-0.553-0.316-1.263-0.158-1.737 0.237-0.789 0.633-1.184 1.74-1.184 2.768 0 0.316 0.079 0.554 0.079 0.87 0.158 0.712 0.474 1.345 0.868 1.898 0.237 0.475 0.553 0.87 0.868 1.345 1.026 1.424 2.289 2.61 3.789 3.559 0.711 0.475 1.579 0.87 2.368 1.107 0.947 0.316 1.737 0.633 2.763 0.475 1.026-0.237 2.053-0.87 2.526-1.898 0.158-0.316 0.158-0.633 0.079-0.949 0-0.633-0.868-1.028-1.421-1.345z"></path>
</symbol>
<symbol id="icon-viber" viewBox="0 0 26 28">
<path fill="#fff" style="fill: var(--color1, #fff)" d="M6.312 24.781c0-0.459 0.151-0.956-0.038-1.3-0.189-0.306-0.716-0.421-1.094-0.612-1.999-1.071-3.545-2.6-4.337-4.742-0.339-0.841-0.453-1.797-0.603-2.715s-0.189-1.836-0.226-2.753c-0.075-1.989 0.151-3.977 0.566-5.927 0.226-1.109 0.792-2.065 1.471-2.906 1.056-1.338 2.338-2.447 3.96-2.983 0.943-0.306 1.923-0.459 2.904-0.574 1.32-0.153 2.677-0.268 3.997-0.268s2.64 0.115 3.96 0.229c0.867 0.076 1.735 0.229 2.602 0.421 1.508 0.344 2.753 1.224 3.846 2.295 1.056 1.033 1.923 2.256 2.225 3.748 0.452 2.18 0.717 4.36 0.528 6.578-0.113 1.339-0.264 2.639-0.49 3.977-0.264 1.53-1.094 2.715-2.149 3.786-1.094 1.147-2.338 2.065-3.922 2.409-1.207 0.268-2.451 0.382-3.658 0.535-0.641 0.076-1.32 0.115-1.999 0.115-0.754 0-1.546-0.038-2.3-0.038-0.189 0-0.452 0.115-0.603 0.268-0.867 0.879-1.659 1.759-2.489 2.639-0.603 0.612-1.433 0.65-1.885 0.038-0.189-0.268-0.264-0.65-0.302-0.956 0-0.459 0.038-0.841 0.038-1.262zM7.368 23.595c0 0.382 0 0.765 0 1.147s0 0.765 0 1.147c0 0.115 0.075 0.268 0.151 0.306s0.226-0.077 0.302-0.153c0.075-0.038 0.113-0.115 0.189-0.191 1.282-1.339 2.527-2.639 3.809-3.939 0.151-0.153 0.377-0.268 0.603-0.268 1.81 0 3.62-0.153 5.43-0.382 1.056-0.153 2.036-0.421 2.904-1.109 1.131-0.918 2.187-1.912 2.451-3.404 0.264-1.415 0.415-2.868 0.49-4.321 0.038-1.186-0.113-2.409-0.226-3.595-0.113-1.262-0.415-2.486-1.32-3.518s-1.923-1.989-3.318-2.256c-1.358-0.268-2.715-0.421-4.11-0.497-2.263-0.115-4.563-0.038-6.788 0.382-2.413 0.421-4.073 1.836-4.902 4.13-0.377 1.033-0.453 2.18-0.528 3.289-0.075 1.415-0.038 2.868 0.075 4.283 0.038 0.841 0.151 1.721 0.453 2.524 0.679 1.874 2.036 3.098 3.846 3.824 0.339 0.153 0.49 0.306 0.49 0.688-0.038 0.574 0 1.262 0 1.912z"></path>
<path fill="#fff" style="fill: var(--color1, #fff)" d="M14.118 15.45c0.151-0.076 0.339-0.153 0.49-0.268 0.189-0.153 0.302-0.382 0.49-0.535 0.377-0.382 0.83-0.535 1.282-0.268 0.83 0.574 1.659 1.147 2.451 1.797 0.302 0.229 0.415 0.574 0.226 0.956-0.415 0.956-1.018 1.721-2.074 2.027-0.151 0.038-0.302 0.038-0.452 0-3.507-1.262-6.448-3.251-8.409-6.539-0.679-1.109-1.169-2.333-1.735-3.518-0.302-0.574-0.189-1.109 0.151-1.644 0.415-0.612 0.943-1.071 1.584-1.377 0.377-0.191 0.792-0.153 1.056 0.191 0.603 0.765 1.169 1.568 1.697 2.409 0.377 0.612 0.189 1.109-0.339 1.568-0.113 0.077-0.189 0.153-0.302 0.229-0.339 0.268-0.415 0.612-0.264 0.994 0.641 1.797 1.81 3.136 3.62 3.824 0.151 0.076 0.302 0.076 0.528 0.153z"></path>
<path fill="#fff" style="fill: var(--color1, #fff)" d="M19.548 11.932c0 0.115 0.075 0.268 0.038 0.382-0.075 0.153-0.189 0.382-0.339 0.421-0.113 0.038-0.377-0.191-0.415-0.306-0.113-0.382-0.113-0.765-0.151-1.147-0.151-2.256-1.848-4.398-3.997-4.933-0.452-0.115-0.943-0.153-1.433-0.229-0.113 0-0.189-0.038-0.302-0.038-0.264-0.038-0.452-0.115-0.452-0.421 0.038-0.344 0.302-0.421 0.566-0.421 2.904 0.115 5.392 1.797 6.222 4.818 0.151 0.612 0.226 1.262 0.302 1.874 0-0.038 0 0-0.038 0z"></path>
<path fill="#fff" style="fill: var(--color1, #fff)" d="M17.926 11.512c-0.038 0.076 0 0.229-0.075 0.306-0.113 0.115-0.264 0.268-0.415 0.268-0.113 0-0.302-0.191-0.302-0.306-0.113-0.421-0.113-0.918-0.226-1.339-0.377-1.453-1.584-2.447-3.092-2.6-0.151 0-0.264-0.038-0.415-0.076-0.226-0.038-0.377-0.191-0.339-0.421 0.038-0.268 0.226-0.382 0.453-0.382 2.225 0.153 4.11 1.568 4.374 4.054 0 0.115 0.038 0.306 0.038 0.497z"></path>
<path fill="#fff" style="fill: var(--color1, #fff)" d="M14.043 8.682c1.282 0.038 2.263 1.147 2.187 2.371 0 0.268-0.113 0.497-0.377 0.459-0.151-0.038-0.302-0.229-0.453-0.382-0.038-0.038 0-0.115 0-0.153-0.189-0.994-0.452-1.262-1.471-1.453-0.264-0.038-0.452-0.191-0.452-0.459 0.038-0.268 0.226-0.382 0.49-0.382 0.075 0 0.113 0 0.075 0z"></path>
</symbol>
<symbol id="icon-Vector" viewBox="0 0 52 28">
<path d="M24.672 26.578c0.174 0.175 0.381 0.313 0.609 0.408s0.472 0.143 0.719 0.143c0.247 0 0.491-0.049 0.719-0.143s0.435-0.233 0.609-0.408l22.5-22.5c0.352-0.352 0.55-0.83 0.55-1.328s-0.198-0.975-0.55-1.327c-0.352-0.352-0.83-0.55-1.327-0.55s-0.976 0.198-1.328 0.55l-21.172 21.176-21.173-21.176c-0.352-0.352-0.83-0.55-1.328-0.55s-0.975 0.198-1.328 0.55c-0.352 0.352-0.55 0.83-0.55 1.327s0.198 0.975 0.55 1.328l22.5 22.5z"></path>
</symbol>
<symbol id="icon-Ellipse-3" viewBox="0 0 21 28">
<path fill="#fff" style="fill: var(--color1, #fff); stroke: var(--color2, #75e169)" stroke="#75e169" stroke-linejoin="miter" stroke-linecap="butt" stroke-miterlimit="4" stroke-width="0.8485" d="M20.364 14c0 3.569-2.403 6.88-6.313 9.357-3.801 2.408-8.961 3.982-14.475 4.194v-27.103c5.514 0.212 10.674 1.785 14.475 4.194 3.91 2.477 6.313 5.788 6.313 9.357z"></path>
</symbol>
<symbol id="icon-Ellipse-11" viewBox="0 0 28 28">
<path fill="#fff" style="fill: var(--color1, #fff)" d="M28 14c0 7.732-6.268 14-14 14s-14-6.268-14-14c0-7.732 6.268-14 14-14s14 6.268 14 14z"></path>
</symbol>
<symbol id="icon-shape-cylinder278-copy" viewBox="0 0 53 28">
<path d="M0 0h52.8v28h-52.8v-28z"></path>
</symbol>
<symbol id="icon-Layer-9-copy-3" viewBox="0 0 70 28">
<path d="M-2.154 0h72.154v28h-72.154v-28z"></path>
</symbol>
<symbol id="icon-Ellipse-2" viewBox="0 0 20 28">
<path fill="#daecff" style="fill: var(--color3, #daecff)" d="M20.364 12.258c0 7.732-0.121 15.742 0 15.742-11.797 0-20.364-6.268-20.364-14s8.567-14 20.364-14c0 0 0 4.526 0 12.258z"></path>
</symbol>
<symbol id="icon-shape-wave257-copy" viewBox="0 0 78 28">
<path d="M0 0h78v28h-78v-28z"></path>
</symbol>
<symbol id="icon-shape-cylinder275" viewBox="0 0 60 28">
<path d="M0 0h59.818v28h-59.818v-28z"></path>
</symbol>
<symbol id="icon-Vector-o" viewBox="0 0 25 28">
<path fill="#fff" style="fill: var(--color1, #fff)" d="M23.593 14c0 8.386-4.6 13.728-11.964 13.728s-11.502-6.065-11.502-13.308c0-7.594 4.55-13.616 11.866-13.616 7.7 0 11.6 6.219 11.6 13.199zM6.908 14.294c0 4.9 1.957 7.902 5.012 7.902s4.908-3.27 4.908-7.969c0-4.491-1.84-7.89-4.945-7.89-3.016 0-4.97 3.144-4.97 7.958h-0.006z"></path>
</symbol>
<symbol id="icon-Vector-l" viewBox="0 0 20 28">
<path fill="#fff" style="fill: var(--color1, #fff)" d="M1.221 1.226h6.395v20.222h9.204v5.852h-15.599v-26.074z"></path>
</symbol>
<symbol id="icon-Vector-e" viewBox="0 0 20 28">
<path fill="#fff" style="fill: var(--color1, #fff)" d="M16.895 16.789h-8.596v4.805h9.596v5.706h-15.991v-26.074h15.492v5.706h-9.097v4.211h8.596v5.645z"></path>
</symbol>
<symbol id="icon-Vector-v" viewBox="0 0 25 28">
<path fill="#fff" style="fill: var(--color1, #fff)" d="M9.758 27.3l-7.588-26.074h7.022l2.537 10.262c0.75 2.92 1.408 5.774 1.982 9.12h0.070c0.574-3.181 1.26-6.199 1.96-9.002l2.598-10.374h6.804l-7.82 26.079-7.566-0.011z"></path>
</symbol>
<symbol id="icon-Vector-d" viewBox="0 0 25 28">
<path fill="#fff" style="fill: var(--color1, #fff)" d="M2.321 1.588c2.514-0.398 5.051-0.588 7.594-0.56 4.6 0 7.448 0.812 9.82 2.59 2.632 1.98 4.323 5.23 4.323 10.018 0 5.309-1.84 8.761-4.172 10.746-2.624 2.218-6.535 3.209-11.206 3.209-2.128 0.031-4.253-0.112-6.359-0.426v-25.578zM8.705 22.092c0.454 0.064 0.907 0.090 1.361 0.073 4.141 0.056 7.204-2.425 7.204-8.308 0-5.096-2.761-7.49-6.616-7.49-0.078-0.003-0.171-0.004-0.263-0.004-0.596 0-1.177 0.063-1.737 0.182l0.054-0.010v15.557z"></path>
</symbol>
<symbol id="icon-Vector-left" viewBox="0 0 14 28">
<path fill="#fff" style="fill: var(--color1, #fff)" d="M13.866 26.759h-5.797l-6.959-12.884 6.959-13.198h5.797l-6.376 13.198 6.376 12.884z"></path>
</symbol>
<symbol id="icon-LeftVector" viewBox="0 0 24 28">
<path d="M14.807 27.513l9.111-27.513h-23.918v27.513h14.807z"></path>
</symbol>
<symbol id="icon-RignthVector" viewBox="0 0 25 28">
<path d="M9.424 0.060l-9.112 27.614h23.92v-27.614h-14.809z"></path>
</symbol>
<symbol id="icon-Vector-rignth" viewBox="0 0 14 28">
<path fill="#fff" style="fill: var(--color1, #fff)" d="M0.717 0.753h5.8l6.958 12.884-6.958 13.198h-5.8l6.378-13.198-6.376-12.884z"></path>
</symbol>
<symbol id="icon-Vector-s" viewBox="0 0 20 28">
<path fill="#fff" style="fill: var(--color1, #fff)" d="M3.623 20.356c1.932 1.028 4.046 1.579 6.194 1.616 2.184 0 3.268-0.829 3.268-2.148 0-1.316-1.072-1.98-3.772-2.988-4.024-1.557-6.709-3.984-6.709-7.862 0-4.612 3.562-8.148 9.593-8.148 2.212-0.059 4.404 0.392 6.443 1.33l-1.336 5.58c-1.512-0.772-3.298-1.227-5.189-1.235h-0.002c-1.946 0-3.018 0.778-3.018 1.924 0 1.322 1.266 1.854 4.278 3.086 4.304 1.719 6.227 4.236 6.227 7.862 0 4.522-3.22 8.336-10.178 8.336-2.881 0-5.67-0.826-7.022-1.588l1.224-5.762z"></path>
</symbol>
<symbol id="icon-Vector-r" viewBox="0 0 22 28">
<path fill="#fff" style="fill: var(--color1, #fff)" d="M1.576 1.588c2.194-0.358 4.723-0.562 7.299-0.562 0.147 0 0.294 0.001 0.44 0.002l-0.022-0c3.682 0 6.278 0.549 8.078 2.008 1.532 1.277 2.352 3.136 2.352 5.684 0 3.254-2.229 5.564-4.088 6.308v0.134c1.588 0.745 2.444 2.408 3.055 4.673 0.72 2.646 1.504 6.44 1.966 7.445h-6.535c-0.364-0.756-0.983-2.794-1.674-6.028-0.65-3.125-1.523-3.774-3.497-3.774h-1.042v9.778h-6.328v-25.668zM7.907 12.494h1.666c2.414 0 3.802-1.285 3.802-3.24s-1.176-3.063-3.304-3.086c-0.124-0.006-0.269-0.009-0.415-0.009-0.619 0-1.223 0.060-1.808 0.176l0.059-0.010v6.168z"></path>
</symbol>
<symbol id="icon-Vector-p" viewBox="0 0 20 28">
<path fill="#fff" style="fill: var(--color1, #fff)" d="M1.173 1.588c2.144-0.36 4.613-0.566 7.131-0.566 0.261 0 0.522 0.002 0.782 0.007l-0.039-0.001c3.436 0 5.9 0.675 7.574 2.078 0.868 0.742 1.565 1.697 2.038 2.786 0.473 1.092 0.706 2.285 0.68 3.489 0 2.643-0.812 4.956-2.324 6.432-1.926 1.887-4.732 2.727-7.952 2.727-0.622 0-1.168-0.056-1.56-0.084v8.848h-6.328v-25.718zM7.518 13.093c0.484 0.084 0.974 0.115 1.464 0.101 2.484 0 4.043-1.408 4.043-3.648 0-1.943-1.176-3.259-3.612-3.259-0.052-0.001-0.114-0.002-0.176-0.002-0.609 0-1.203 0.066-1.774 0.191l0.055-0.010v6.628z"></path>
</symbol>
</defs>
</svg>
