<svg aria-hidden="true" style="position: absolute; width: 0; height: 0; overflow: hidden;" version="1.1" xmlns="http://www.w3.org/2000/svg" xmlns:xlink="http://www.w3.org/1999/xlink">
<defs>
<symbol id="icon-Vector" viewBox="0 0 52 28">
<path d="M24.672 26.578c0.174 0.175 0.381 0.313 0.609 0.408s0.472 0.143 0.719 0.143c0.247 0 0.491-0.049 0.719-0.143s0.435-0.233 0.609-0.408l22.5-22.5c0.352-0.352 0.55-0.83 0.55-1.328s-0.198-0.975-0.55-1.327c-0.352-0.352-0.83-0.55-1.327-0.55s-0.976 0.198-1.328 0.55l-21.172 21.176-21.173-21.176c-0.352-0.352-0.83-0.55-1.328-0.55s-0.975 0.198-1.328 0.55c-0.352 0.352-0.55 0.83-0.55 1.327s0.198 0.975 0.55 1.328l22.5 22.5z"></path>
</symbol>
<symbol id="icon-Ellipse-3" viewBox="0 0 21 28">
<path fill="#fff" style="fill: var(--color1, #fff); stroke: var(--color2, #75e169)" stroke="#75e169" stroke-linejoin="miter" stroke-linecap="butt" stroke-miterlimit="4" stroke-width="0.8485" d="M20.364 14c0 3.569-2.403 6.88-6.313 9.357-3.801 2.408-8.961 3.982-14.475 4.194v-27.103c5.514 0.212 10.674 1.785 14.475 4.194 3.91 2.477 6.313 5.788 6.313 9.357z"></path>
</symbol>
<symbol id="icon-Ellipse-11" viewBox="0 0 28 28">
<path fill="#fff" style="fill: var(--color1, #fff)" d="M28 14c0 7.732-6.268 14-14 14s-14-6.268-14-14c0-7.732 6.268-14 14-14s14 6.268 14 14z"></path>
</symbol>
<symbol id="icon-shape-cylinder278-copy" viewBox="0 0 53 28">
<path d="M0 0h52.8v28h-52.8v-28z"></path>
</symbol>
<symbol id="icon-Layer-9-copy-3" viewBox="0 0 70 28">
<path d="M-2.154 0h72.154v28h-72.154v-28z"></path>
</symbol>
<symbol id="icon-Ellipse-2" viewBox="0 0 20 28">
<path fill="#daecff" style="fill: var(--color3, #daecff)" d="M20.364 12.258c0 7.732-0.121 15.742 0 15.742-11.797 0-20.364-6.268-20.364-14s8.567-14 20.364-14c0 0 0 4.526 0 12.258z"></path>
</symbol>
<symbol id="icon-shape-wave257-copy" viewBox="0 0 78 28">
<path d="M0 0h78v28h-78v-28z"></path>
</symbol>
<symbol id="icon-shape-cylinder275" viewBox="0 0 60 28">
<path d="M0 0h59.818v28h-59.818v-28z"></path>
</symbol>
<symbol id="icon-Vector-o" viewBox="0 0 25 28">
<path fill="#fff" style="fill: var(--color1, #fff)" d="M23.593 14c0 8.386-4.6 13.728-11.964 13.728s-11.502-6.065-11.502-13.308c0-7.594 4.55-13.616 11.866-13.616 7.7 0 11.6 6.219 11.6 13.199zM6.908 14.294c0 4.9 1.957 7.902 5.012 7.902s4.908-3.27 4.908-7.969c0-4.491-1.84-7.89-4.945-7.89-3.016 0-4.97 3.144-4.97 7.958h-0.006z"></path>
</symbol>
<symbol id="icon-Vector-l" viewBox="0 0 20 28">
<path fill="#fff" style="fill: var(--color1, #fff)" d="M1.221 1.226h6.395v20.222h9.204v5.852h-15.599v-26.074z"></path>
</symbol>
<symbol id="icon-Vector-e" viewBox="0 0 20 28">
<path fill="#fff" style="fill: var(--color1, #fff)" d="M16.895 16.789h-8.596v4.805h9.596v5.706h-15.991v-26.074h15.492v5.706h-9.097v4.211h8.596v5.645z"></path>
</symbol>
<symbol id="icon-Vector-v" viewBox="0 0 25 28">
<path fill="#fff" style="fill: var(--color1, #fff)" d="M9.758 27.3l-7.588-26.074h7.022l2.537 10.262c0.75 2.92 1.408 5.774 1.982 9.12h0.070c0.574-3.181 1.26-6.199 1.96-9.002l2.598-10.374h6.804l-7.82 26.079-7.566-0.011z"></path>
</symbol>
<symbol id="icon-Vector-d" viewBox="0 0 25 28">
<path fill="#fff" style="fill: var(--color1, #fff)" d="M2.321 1.588c2.514-0.398 5.051-0.588 7.594-0.56 4.6 0 7.448 0.812 9.82 2.59 2.632 1.98 4.323 5.23 4.323 10.018 0 5.309-1.84 8.761-4.172 10.746-2.624 2.218-6.535 3.209-11.206 3.209-2.128 0.031-4.253-0.112-6.359-0.426v-25.578zM8.705 22.092c0.454 0.064 0.907 0.090 1.361 0.073 4.141 0.056 7.204-2.425 7.204-8.308 0-5.096-2.761-7.49-6.616-7.49-0.078-0.003-0.171-0.004-0.263-0.004-0.596 0-1.177 0.063-1.737 0.182l0.054-0.010v15.557z"></path>
</symbol>
<symbol id="icon-Vector-left" viewBox="0 0 14 28">
<path fill="#fff" style="fill: var(--color1, #fff)" d="M13.866 26.759h-5.797l-6.959-12.884 6.959-13.198h5.797l-6.376 13.198 6.376 12.884z"></path>
</symbol>
<symbol id="icon-LeftVector" viewBox="0 0 24 28">
<path d="M14.807 27.513l9.111-27.513h-23.918v27.513h14.807z"></path>
</symbol>
<symbol id="icon-RignthVector" viewBox="0 0 25 28">
<path d="M9.424 0.060l-9.112 27.614h23.92v-27.614h-14.809z"></path>
</symbol>
<symbol id="icon-Vector-rignth" viewBox="0 0 14 28">
<path fill="#fff" style="fill: var(--color1, #fff)" d="M0.717 0.753h5.8l6.958 12.884-6.958 13.198h-5.8l6.378-13.198-6.376-12.884z"></path>
</symbol>
<symbol id="icon-Vector-s" viewBox="0 0 20 28">
<path fill="#fff" style="fill: var(--color1, #fff)" d="M3.623 20.356c1.932 1.028 4.046 1.579 6.194 1.616 2.184 0 3.268-0.829 3.268-2.148 0-1.316-1.072-1.98-3.772-2.988-4.024-1.557-6.709-3.984-6.709-7.862 0-4.612 3.562-8.148 9.593-8.148 2.212-0.059 4.404 0.392 6.443 1.33l-1.336 5.58c-1.512-0.772-3.298-1.227-5.189-1.235h-0.002c-1.946 0-3.018 0.778-3.018 1.924 0 1.322 1.266 1.854 4.278 3.086 4.304 1.719 6.227 4.236 6.227 7.862 0 4.522-3.22 8.336-10.178 8.336-2.881 0-5.67-0.826-7.022-1.588l1.224-5.762z"></path>
</symbol>
<symbol id="icon-Vector-r" viewBox="0 0 22 28">
<path fill="#fff" style="fill: var(--color1, #fff)" d="M1.576 1.588c2.194-0.358 4.723-0.562 7.299-0.562 0.147 0 0.294 0.001 0.44 0.002l-0.022-0c3.682 0 6.278 0.549 8.078 2.008 1.532 1.277 2.352 3.136 2.352 5.684 0 3.254-2.229 5.564-4.088 6.308v0.134c1.588 0.745 2.444 2.408 3.055 4.673 0.72 2.646 1.504 6.44 1.966 7.445h-6.535c-0.364-0.756-0.983-2.794-1.674-6.028-0.65-3.125-1.523-3.774-3.497-3.774h-1.042v9.778h-6.328v-25.668zM7.907 12.494h1.666c2.414 0 3.802-1.285 3.802-3.24s-1.176-3.063-3.304-3.086c-0.124-0.006-0.269-0.009-0.415-0.009-0.619 0-1.223 0.060-1.808 0.176l0.059-0.010v6.168z"></path>
</symbol>
<symbol id="icon-Vector-p" viewBox="0 0 20 28">
<path fill="#fff" style="fill: var(--color1, #fff)" d="M1.173 1.588c2.144-0.36 4.613-0.566 7.131-0.566 0.261 0 0.522 0.002 0.782 0.007l-0.039-0.001c3.436 0 5.9 0.675 7.574 2.078 0.868 0.742 1.565 1.697 2.038 2.786 0.473 1.092 0.706 2.285 0.68 3.489 0 2.643-0.812 4.956-2.324 6.432-1.926 1.887-4.732 2.727-7.952 2.727-0.622 0-1.168-0.056-1.56-0.084v8.848h-6.328v-25.718zM7.518 13.093c0.484 0.084 0.974 0.115 1.464 0.101 2.484 0 4.043-1.408 4.043-3.648 0-1.943-1.176-3.259-3.612-3.259-0.052-0.001-0.114-0.002-0.176-0.002-0.609 0-1.203 0.066-1.774 0.191l0.055-0.010v6.628z"></path>
</symbol>
</defs>
</svg>
